<?xml version="1.0" standalone="no"?>
<!DOCTYPE svg PUBLIC "-//W3C//DTD SVG 20010904//EN"
 "http://www.w3.org/TR/2001/REC-SVG-20010904/DTD/svg10.dtd">
<svg version="1.0" xmlns="http://www.w3.org/2000/svg"
 width="900.000000pt" height="600.000000pt" viewBox="0 0 900.000000 600.000000"
 preserveAspectRatio="xMidYMid meet">

<g transform="translate(0.000000,600.000000) scale(0.100000,-0.100000)"
fill="#fe0000" stroke="none">
<path d="M4265 5979 c-703 -51 -1310 -327 -1819 -827 -414 -406 -675 -852
-804 -1372 -112 -451 -114 -991 -6 -1449 127 -540 403 -1011 835 -1425 228
-219 459 -381 734 -516 290 -142 523 -214 870 -266 171 -26 679 -27 845 -1
343 53 573 121 845 251 716 343 1303 1007 1539 1741 90 281 126 504 133 835
11 498 -49 840 -216 1241 -143 341 -341 629 -636 925 -251 252 -458 408 -735
552 -468 245 -1017 353 -1585 311z m675 -174 c346 -54 652 -158 925 -312 564
-319 1032 -851 1260 -1432 231 -592 245 -1349 36 -1953 -141 -405 -342 -720
-670 -1049 -228 -227 -407 -365 -646 -496 -598 -329 -1355 -418 -2056 -243
-292 74 -546 187 -806 359 -539 356 -957 897 -1143 1478 -153 477 -172 1085
-50 1573 95 382 265 724 516 1040 96 121 381 401 499 491 423 322 884 507
1390 558 144 15 622 6 745 -14z"/>
<path d="M4203 5364 c-409 -49 -790 -208 -1119 -465 -120 -94 -308 -279 -401
-394 -260 -322 -422 -696 -485 -1120 -20 -140 -17 -561 6 -705 77 -489 294
-915 646 -1270 199 -201 401 -347 645 -465 352 -171 657 -233 1088 -222 230 5
362 23 563 77 756 201 1409 854 1614 1614 52 193 71 331 77 563 11 435 -58
768 -233 1116 -305 610 -906 1085 -1556 1231 -244 55 -590 71 -845 40z m1385
-734 c95 -16 221 -65 308 -122 111 -72 273 -238 313 -320 46 -95 62 -169 62
-293 1 -131 -13 -214 -52 -316 -124 -322 -478 -562 -1037 -704 -83 -21 -365
-60 -577 -80 -93 -9 -185 -18 -202 -21 l-33 -5 0 -414 0 -414 38 -10 c20 -5
69 -14 107 -20 92 -14 245 -59 369 -110 188 -77 334 -189 392 -302 22 -43 28
-68 28 -124 1 -63 -1 -70 -20 -73 -15 -2 -42 22 -105 94 -71 82 -95 102 -159
134 -103 52 -232 96 -350 120 -120 25 -280 37 -280 23 0 -25 33 -33 150 -35
l125 -3 20 -31 c18 -29 25 -32 92 -37 137 -12 246 -73 259 -144 12 -66 53 -63
-797 -63 -684 0 -769 2 -783 16 -25 24 -19 51 21 95 58 65 110 90 200 96 69 5
83 10 119 40 41 33 41 33 151 33 120 0 134 6 148 62 l7 28 -75 0 c-205 0 -730
101 -856 164 -147 75 -235 159 -293 282 -31 66 -33 75 -33 184 0 108 2 119 31
180 52 110 201 253 332 319 256 129 516 199 835 227 l67 6 0 62 c0 124 -50
226 -142 289 -38 26 -109 56 -220 93 -297 100 -459 193 -620 356 -61 62 -105
98 -118 98 -29 0 -77 27 -90 49 -29 56 1 112 69 131 48 13 2470 14 2505 0 44
-16 66 -47 66 -89 0 -33 -5 -43 -31 -62 -17 -12 -50 -27 -74 -34 -30 -9 -57
-29 -86 -62 -105 -116 -226 -215 -341 -278 -68 -37 -207 -90 -433 -167 -66
-22 -128 -44 -139 -50 -10 -5 -32 -40 -49 -76 -23 -52 -31 -85 -35 -149 l-5
-83 66 0 c217 0 562 63 837 154 272 89 348 131 481 265 137 138 196 286 169
423 -29 152 -103 296 -173 338 -66 41 -95 43 -193 10 -181 -62 -229 -70 -411
-70 -118 0 -173 4 -181 12 -19 19 -14 48 10 57 18 6 9 9 -39 13 -73 5 -93 19
-93 63 0 30 7 37 73 80 221 142 458 200 675 165z"/>
<path d="M4020 2729 c-496 -67 -760 -163 -831 -300 -37 -74 -18 -155 52 -209
113 -90 337 -150 710 -189 l169 -17 0 363 c0 340 -1 363 -17 362 -10 -1 -47
-5 -83 -10z"/>
</g>
</svg>
